<svg width="1600" height="1100" viewBox="0 0 1600 1100" fill="none" xmlns="http://www.w3.org/2000/svg">
  <rect width="1600" height="1100" rx="56" fill="#F0E4D8"/>
  <rect x="88" y="84" width="1424" height="932" rx="44" fill="url(#paint0_linear_130_3)"/>
  <path d="M370 190C504 240 622 347 726 504C786 594 844 668 902 726" stroke="#F4F1EA" stroke-width="22" stroke-linecap="round"/>
  <path d="M1220 230C1020 366 864 480 742 572C646 644 538 725 418 814" stroke="#F7EFE6" stroke-width="18" stroke-linecap="round"/>
  <path d="M876 202L766 422L1028 410L690 890" stroke="#7A4B26" stroke-width="18" stroke-linecap="round" stroke-linejoin="round"/>
  <circle cx="1208" cy="308" r="168" fill="#F6F0E8" fill-opacity="0.22"/>
  <circle cx="390" cy="784" r="126" fill="#F6F0E8" fill-opacity="0.14"/>
  <text x="130" y="890" fill="#FFF8F2" font-size="100" font-family="Manrope, sans-serif" font-weight="800">FRACTURING</text>
  <text x="132" y="968" fill="#F1DED2" font-size="36" font-family="Manrope, sans-serif" letter-spacing="8">ACIDIZING CHEMICALS</text>
  <defs>
    <linearGradient id="paint0_linear_130_3" x1="186" y1="122" x2="1416" y2="978" gradientUnits="userSpaceOnUse">
      <stop stop-color="#C58A52"/>
      <stop offset="1" stop-color="#9C6333"/>
    </linearGradient>
  </defs>
</svg>
