<svg width="1600" height="1100" viewBox="0 0 1600 1100" fill="none" xmlns="http://www.w3.org/2000/svg">
  <rect width="1600" height="1100" rx="56" fill="#DEE9E7"/>
  <rect x="88" y="84" width="1424" height="932" rx="44" fill="url(#paint0_linear_130_4)"/>
  <path d="M182 706C290 646 404 616 524 616C692 616 852 692 1018 692C1165 692 1310 640 1454 536" stroke="#F4F1EA" stroke-width="22" stroke-linecap="round"/>
  <path d="M194 824C318 748 456 710 608 710C800 710 970 796 1136 796C1240 796 1352 762 1472 690" stroke="#DCECEA" stroke-width="18" stroke-linecap="round"/>
  <path d="M746 252C746 252 858 390 858 498C858 593 810 646 742 646C676 646 626 594 626 500C626 392 746 252 746 252Z" fill="#F4F1EA"/>
  <circle cx="1218" cy="302" r="118" fill="#F4F1EA" fill-opacity="0.16"/>
  <circle cx="1218" cy="302" r="78" stroke="#F4F1EA" stroke-width="10" stroke-opacity="0.5"/>
  <text x="128" y="882" fill="#F4F1EA" font-size="104" font-family="Manrope, sans-serif" font-weight="800">WATER TREATMENT</text>
  <text x="132" y="960" fill="#D4E7E4" font-size="34" font-family="Manrope, sans-serif" letter-spacing="8">PRODUCTION AND INJECTION SYSTEMS</text>
  <defs>
    <linearGradient id="paint0_linear_130_4" x1="146" y1="124" x2="1446" y2="986" gradientUnits="userSpaceOnUse">
      <stop stop-color="#7FA6A3"/>
      <stop offset="1" stop-color="#355F63"/>
    </linearGradient>
  </defs>
</svg>
