<svg width="1600" height="1100" viewBox="0 0 1600 1100" fill="none" xmlns="http://www.w3.org/2000/svg">
  <rect width="1600" height="1100" rx="56" fill="#DDE8E5"/>
  <rect x="88" y="84" width="1424" height="932" rx="44" fill="url(#paint0_linear_130_2)"/>
  <path d="M1132 174C1044 262 996 368 986 492C977 604 927 734 808 912" stroke="#0F5B63" stroke-width="28" stroke-linecap="round"/>
  <path d="M1188 144C1098 242 1042 360 1026 498C1010 632 951 770 824 956" stroke="#7FA6A3" stroke-width="14" stroke-linecap="round"/>
  <path d="M710 205L792 936" stroke="#F5F2EB" stroke-width="20" stroke-linecap="round"/>
  <path d="M668 303H828" stroke="#F5F2EB" stroke-width="16" stroke-linecap="round"/>
  <path d="M646 500H852" stroke="#F5F2EB" stroke-width="16" stroke-linecap="round"/>
  <path d="M620 706H876" stroke="#F5F2EB" stroke-width="16" stroke-linecap="round"/>
  <circle cx="1228" cy="274" r="120" fill="#F4F1EA" fill-opacity="0.35"/>
  <path d="M1282 206C1238 216 1203 241 1176 282C1156 314 1143 353 1136 399" stroke="#C58A52" stroke-width="10" stroke-linecap="round"/>
  <text x="140" y="890" fill="#F4F1EA" font-size="104" font-family="Manrope, sans-serif" font-weight="800">DRILLING</text>
  <text x="142" y="968" fill="#D7E2DF" font-size="36" font-family="Manrope, sans-serif" letter-spacing="8">COMPLETION CHEMICALS</text>
  <defs>
    <linearGradient id="paint0_linear_130_2" x1="182" y1="138" x2="1428" y2="962" gradientUnits="userSpaceOnUse">
      <stop stop-color="#0F5B63"/>
      <stop offset="1" stop-color="#17444A"/>
    </linearGradient>
  </defs>
</svg>
