<svg width="320" height="360" viewBox="0 0 320 360" fill="none" xmlns="http://www.w3.org/2000/svg">
  <rect width="320" height="360" rx="28" fill="#F4F1EA"/>
  <rect x="44" y="44" width="232" height="232" rx="16" fill="#FFFFFF"/>
  <g fill="#0F5B63">
    <rect x="64" y="64" width="44" height="44" rx="6"/>
    <rect x="212" y="64" width="44" height="44" rx="6"/>
    <rect x="64" y="212" width="44" height="44" rx="6"/>
    <rect x="128" y="64" width="20" height="20" rx="4"/>
    <rect x="160" y="64" width="20" height="20" rx="4"/>
    <rect x="128" y="96" width="20" height="20" rx="4"/>
    <rect x="160" y="96" width="44" height="20" rx="4"/>
    <rect x="128" y="128" width="76" height="20" rx="4"/>
    <rect x="212" y="128" width="20" height="20" rx="4"/>
    <rect x="236" y="152" width="20" height="20" rx="4"/>
    <rect x="128" y="160" width="20" height="44" rx="4"/>
    <rect x="160" y="160" width="44" height="20" rx="4"/>
    <rect x="64" y="128" width="20" height="44" rx="4"/>
    <rect x="88" y="152" width="20" height="20" rx="4"/>
    <rect x="64" y="176" width="44" height="20" rx="4"/>
    <rect x="128" y="212" width="20" height="20" rx="4"/>
    <rect x="160" y="212" width="20" height="44" rx="4"/>
    <rect x="192" y="212" width="20" height="20" rx="4"/>
    <rect x="212" y="236" width="44" height="20" rx="4"/>
  </g>
  <text x="160" y="314" text-anchor="middle" fill="#0F5B63" font-size="22" font-family="Noto Sans SC, sans-serif" font-weight="700">微信公众号占位码</text>
</svg>
